<?xml version="1.0" standalone="no"?>
<!DOCTYPE svg PUBLIC "-//W3C//DTD SVG 20010904//EN"
 "http://www.w3.org/TR/2001/REC-SVG-20010904/DTD/svg10.dtd">
<svg version="1.0" xmlns="http://www.w3.org/2000/svg"
 width="1200.000000pt" height="1200.000000pt" viewBox="0 0 1200.000000 1200.000000"
 preserveAspectRatio="xMidYMid meet">

<g transform="translate(0.000000,1200.000000) scale(0.100000,-0.100000)"
fill="#000000" stroke="none">
<path d="M5615 11055 c-11 -2 -92 -11 -180 -20 -419 -44 -845 -145 -1255 -296
-367 -136 -808 -369 -1140 -604 -84 -59 -300 -222 -310 -234 -3 -3 -51 -46
-108 -95 -358 -307 -694 -700 -964 -1126 -19 -30 -43 -68 -54 -85 -10 -16 -24
-39 -30 -50 -6 -11 -25 -45 -43 -75 -73 -127 -231 -456 -288 -600 -251 -634
-367 -1237 -366 -1900 0 -412 40 -766 129 -1150 48 -205 153 -545 219 -705 21
-49 45 -110 55 -135 52 -131 231 -489 281 -562 11 -14 19 -29 19 -32 0 -6 53
-91 158 -251 98 -148 335 -456 419 -542 10 -11 60 -65 112 -121 172 -188 476
-454 711 -624 107 -77 351 -238 415 -274 97 -54 298 -164 300 -164 2 0 60 -27
130 -60 70 -34 144 -67 164 -74 20 -7 72 -28 116 -45 252 -100 404 -148 705
-220 380 -92 755 -134 1175 -133 486 1 933 63 1370 190 66 19 134 38 150 42
25 6 214 73 355 125 76 28 381 169 477 221 210 111 310 172 513 307 382 256
807 647 1096 1007 136 168 335 451 398 565 9 17 26 46 38 65 100 165 282 538
339 695 9 28 29 82 44 120 167 450 264 912 305 1460 43 585 -57 1319 -265
1940 -50 149 -65 189 -129 343 -86 207 -215 459 -354 687 -32 52 -96 146 -219
320 -50 72 -236 298 -324 395 -150 165 -340 350 -544 527 -119 103 -401 310
-535 392 -189 117 -243 148 -372 215 -176 92 -342 166 -518 233 -93 35 -319
111 -376 127 -343 94 -572 141 -862 178 -139 17 -232 21 -552 23 -212 2 -394
2 -405 0z m-168 -527 c-3 -13 -10 -84 -17 -158 -6 -74 -19 -233 -30 -352 -51
-558 -60 -657 -63 -706 -2 -29 -7 -55 -10 -59 -4 -3 -46 -17 -94 -30 -49 -13
-131 -35 -183 -50 -52 -14 -102 -27 -110 -29 -10 -3 -51 46 -120 142 -120 167
-98 137 -415 574 -132 181 -241 334 -243 338 -4 13 382 123 391 111 2 -2 38
-60 82 -129 98 -156 122 -194 227 -355 46 -71 104 -161 128 -199 l45 -70 8
285 c4 156 10 358 15 448 l7 165 100 28 c55 16 129 37 165 48 36 10 78 19 94
19 24 1 27 -2 23 -21z m698 -100 c3 -68 5 -346 3 -618 l-3 -495 -190 0 -190 0
-7 605 c-4 333 -5 611 -3 618 3 9 51 12 194 12 l189 0 7 -122z m1120 -59 c72
-22 155 -50 185 -61 250 -95 366 -294 331 -565 -12 -91 -47 -218 -85 -306 -62
-143 -198 -268 -330 -303 -91 -24 -272 -11 -381 29 -22 8 -80 26 -130 41 -49
15 -108 34 -130 41 -22 7 -86 27 -142 45 -57 18 -103 36 -103 40 0 4 18 66 41
136 22 71 48 156 58 189 10 33 44 141 75 240 32 99 75 239 98 310 45 146 88
277 94 286 3 6 69 -13 419 -122z m-3388 -573 c109 -46 202 -123 294 -244 206
-272 206 -561 -1 -786 -51 -55 -182 -152 -259 -190 -110 -55 -167 -70 -266
-71 -152 0 -268 50 -397 173 -158 151 -248 337 -248 514 0 231 170 456 438
580 107 50 150 58 277 54 80 -3 112 -9 162 -30z m4265 -533 c106 -69 201 -133
210 -141 15 -13 11 -23 -55 -123 -53 -80 -77 -108 -89 -105 -9 2 -105 62 -212
132 -135 89 -194 133 -190 143 5 15 137 221 141 221 2 0 89 -57 195 -127z
m829 -167 c141 -65 224 -76 415 -53 15 1 45 -25 113 -100 51 -57 91 -107 89
-112 -5 -14 -921 -832 -928 -829 -11 5 -230 250 -230 258 0 4 133 126 295 271
l294 263 -99 33 c-113 37 -244 103 -247 124 -1 12 182 187 198 188 4 1 49 -19
100 -43z m-2526 -205 c494 -78 923 -253 1318 -537 271 -196 572 -514 759 -804
309 -478 468 -1018 472 -1595 4 -797 -306 -1548 -874 -2115 -102 -102 -268
-245 -356 -307 -192 -134 -350 -225 -538 -310 -101 -45 -121 -53 -291 -111
-457 -155 -1004 -188 -1495 -91 -80 16 -176 38 -215 48 -113 30 -333 107 -349
122 -6 5 -16 9 -23 9 -15 0 -238 109 -320 156 -140 80 -354 232 -458 324 -22
19 -99 93 -171 165 -464 461 -736 999 -846 1675 -20 128 -23 177 -22 425 0
296 11 404 65 645 55 244 168 549 278 749 23 41 41 75 41 77 0 5 103 168 138
217 120 169 264 339 390 458 166 158 425 351 588 440 32 17 82 44 109 59 263
143 645 263 970 304 66 9 131 18 145 20 14 2 144 3 290 1 206 -2 294 -8 395
-24z m-3763 -176 c32 -4 60 -9 62 -13 2 -4 -6 -36 -19 -72 -12 -36 -37 -108
-55 -160 l-33 -96 -77 1 c-67 0 -82 -3 -118 -27 -22 -15 -54 -49 -69 -75 -24
-41 -28 -59 -28 -119 1 -65 4 -75 36 -120 45 -62 121 -122 226 -175 85 -44
157 -58 225 -45 68 13 158 134 158 214 0 45 -37 122 -81 167 -16 17 -29 36
-29 42 0 6 20 27 45 47 24 20 50 43 57 50 7 7 46 41 87 76 l74 64 43 -49 c147
-166 173 -380 71 -579 -71 -139 -201 -289 -294 -339 -156 -83 -366 -81 -538 5
-203 103 -333 230 -391 384 -34 91 -36 250 -3 345 67 197 203 370 344 439 58
29 169 50 225 44 14 -2 51 -6 82 -9z m7077 -376 c36 -7 89 -23 116 -37 104
-52 209 -196 261 -359 22 -69 25 -95 22 -170 -3 -74 -9 -99 -37 -155 -57 -119
-159 -214 -322 -301 -430 -232 -741 -139 -890 266 -23 63 -29 95 -29 161 0 75
3 90 35 152 34 68 90 138 105 132 8 -3 190 -273 190 -281 0 -3 -16 -22 -35
-43 -48 -52 -48 -100 -1 -151 31 -34 38 -37 97 -40 50 -2 83 3 149 25 l85 28
-53 28 c-93 47 -159 132 -188 241 -60 221 97 453 341 501 79 16 78 16 154 3z"/>
<path d="M7113 10043 c-11 -32 -32 -98 -47 -148 -15 -49 -31 -99 -36 -110 -16
-42 -92 -297 -88 -299 18 -16 154 -49 203 -50 57 -1 67 2 102 30 46 37 82 101
119 209 22 65 28 99 28 177 1 109 -8 130 -80 180 -31 22 -151 68 -176 68 -3 0
-14 -26 -25 -57z"/>
<path d="M3545 9481 c-44 -11 -110 -56 -139 -93 -35 -47 -49 -118 -36 -183 23
-112 165 -294 265 -341 86 -41 167 -26 250 47 42 37 85 118 85 161 0 99 -136
308 -250 384 -39 26 -125 38 -175 25z"/>
<path d="M6753 8559 c-19 -19 -16 -68 7 -134 27 -79 25 -111 -11 -202 -57
-144 -145 -261 -234 -308 -35 -19 -36 -19 -162 2 -75 13 -133 28 -142 37 -14
14 -13 20 6 58 12 24 53 78 92 120 81 90 95 128 64 180 -22 39 -92 75 -173 90
-48 9 -71 8 -126 -5 -81 -20 -108 -37 -130 -78 -22 -44 -12 -84 42 -154 57
-74 74 -113 74 -164 0 -48 12 -45 -245 -60 -209 -12 -211 -12 -256 80 -36 72
-52 153 -47 238 3 60 8 77 37 118 21 30 36 64 39 90 4 39 2 43 -22 53 -30 11
-208 -3 -264 -21 -39 -13 -66 -57 -54 -90 5 -12 33 -41 63 -64 43 -32 58 -51
71 -90 18 -53 23 -168 11 -288 -7 -84 -27 -106 -120 -136 l-68 -21 -19 22
c-10 13 -29 45 -43 72 -22 43 -25 61 -24 147 1 91 0 99 -20 110 -18 9 -34 4
-107 -32 -48 -25 -95 -56 -106 -72 -19 -25 -19 -30 -6 -54 10 -16 37 -34 76
-50 54 -21 65 -31 103 -89 24 -36 44 -72 45 -80 1 -16 -355 -237 -365 -226 -4
4 -13 45 -19 92 -14 108 -26 146 -53 165 -46 32 -134 6 -219 -66 l-48 -40 -28
45 c-23 35 -30 62 -35 122 -11 126 -41 163 -103 129 -53 -28 -180 -150 -192
-183 -21 -59 31 -102 123 -102 58 0 90 -17 143 -74 30 -32 42 -54 42 -75 0
-49 20 -79 67 -101 33 -15 48 -31 60 -58 32 -76 28 -88 -97 -246 l-115 -145
-35 21 c-51 29 -95 81 -109 128 -17 58 -52 95 -82 87 -44 -11 -141 -181 -126
-221 12 -31 52 -40 111 -26 50 12 57 11 107 -13 102 -47 100 -32 23 -208 -37
-84 -72 -159 -78 -165 -14 -15 -121 -54 -146 -54 -13 0 -38 28 -78 88 -33 48
-68 95 -79 105 -26 23 -73 36 -107 30 -28 -6 -79 -49 -109 -93 l-17 -24 -17
24 c-64 92 -118 116 -154 71 -49 -61 -87 -249 -60 -299 15 -29 54 -28 134 2
l64 24 13 -36 c30 -85 90 -102 214 -61 36 12 75 19 88 15 13 -3 56 -36 97 -74
l75 -68 -14 -147 c-7 -81 -18 -157 -24 -170 -16 -31 -77 -48 -182 -50 -86 -2
-93 -1 -144 31 -69 43 -108 51 -127 27 -21 -29 -17 -161 7 -212 27 -62 52 -61
126 3 37 31 67 47 104 55 69 15 218 9 229 -10 5 -7 14 -54 21 -105 6 -50 21
-127 31 -171 10 -44 19 -90 19 -102 0 -27 -108 -180 -162 -229 -58 -52 -160
-95 -238 -101 -55 -5 -75 -1 -129 21 -75 32 -101 31 -119 -7 -25 -53 25 -214
86 -279 48 -52 72 -39 133 69 20 36 41 59 67 71 127 64 279 87 388 58 34 -9
78 -16 98 -16 45 0 67 -22 115 -112 38 -70 37 -87 -5 -114 -21 -14 -54 -19
-148 -22 -136 -4 -158 -13 -176 -67 -36 -109 120 -305 243 -305 62 0 91 37
106 135 15 92 39 145 76 169 l27 18 135 -134 c74 -73 138 -140 143 -148 4 -8
4 -69 0 -135 -6 -98 -12 -131 -34 -180 -45 -101 -98 -161 -174 -199 -38 -19
-74 -41 -81 -50 -30 -36 10 -85 115 -141 59 -31 69 -31 100 0 23 23 24 29 19
97 -6 67 -4 77 20 123 73 136 238 285 315 285 26 0 241 -107 257 -129 7 -9 13
-33 13 -53 0 -33 -6 -41 -60 -84 -33 -26 -69 -62 -80 -79 -26 -43 -26 -105 1
-139 27 -35 51 -47 129 -66 62 -16 65 -18 62 -45 -6 -51 -43 -109 -113 -175
-92 -87 -92 -108 1 -156 45 -23 71 -28 146 -32 108 -5 134 5 134 48 0 17 -16
64 -36 105 -33 69 -36 80 -29 133 11 93 34 172 75 257 75 157 140 203 239 170
69 -23 101 -52 141 -127 31 -56 35 -73 38 -159 4 -82 1 -101 -17 -137 -11 -22
-29 -47 -39 -54 -26 -19 -52 -59 -52 -81 0 -38 124 -66 214 -47 81 17 86 32
31 116 -40 63 -45 75 -45 131 0 88 17 158 58 236 49 94 72 108 199 120 l103
10 53 -36 c86 -60 160 -172 191 -294 25 -94 21 -156 -13 -227 -42 -88 -47
-120 -22 -145 31 -31 89 -27 216 16 109 36 165 72 165 106 0 26 -45 71 -107
105 -33 19 -67 46 -75 60 -9 15 -28 79 -44 142 -36 149 -39 272 -7 342 21 46
25 49 175 123 l154 77 37 -16 c29 -12 42 -26 60 -68 29 -64 54 -78 142 -78 65
0 65 0 96 -42 60 -82 72 -122 65 -213 -8 -101 2 -135 41 -135 80 0 263 136
263 194 0 32 -24 47 -115 74 -73 22 -82 30 -163 147 l-20 31 59 74 c76 96 96
146 80 200 -14 46 -48 76 -105 91 -84 23 -83 18 -23 84 l55 60 27 -25 c38 -35
65 -93 72 -153 4 -34 14 -59 30 -74 21 -22 25 -23 51 -9 36 19 129 118 142
151 7 18 7 33 0 45 -11 21 -73 42 -95 33 -36 -13 -155 58 -155 93 0 7 51 101
113 208 61 106 120 208 129 225 24 44 41 47 117 23 88 -28 153 -71 174 -113
36 -73 82 -108 118 -89 52 28 112 236 79 275 -18 21 -79 19 -135 -6 -57 -25
-78 -22 -198 28 -103 42 -98 26 -54 195 30 111 57 282 57 357 0 67 12 88 63
112 85 38 143 21 275 -85 99 -78 144 -95 199 -75 29 11 45 27 65 64 34 63 53
165 44 237 -9 67 -56 171 -88 192 -67 43 -124 28 -220 -60 -103 -95 -185 -113
-300 -67 -38 15 -40 18 -53 113 -10 68 -61 278 -84 344 -33 94 -27 123 49 219
56 70 124 122 224 172 l88 45 115 0 c109 0 148 8 165 34 16 23 7 74 -26 141
-37 77 -95 140 -139 150 -23 6 -33 2 -60 -28 -19 -19 -43 -61 -55 -94 -12 -33
-32 -69 -45 -81 -12 -12 -99 -58 -192 -104 -143 -69 -180 -83 -230 -86 l-61
-4 -72 109 c-40 60 -72 112 -72 116 0 4 15 7 33 7 83 0 149 44 168 112 29 109
-96 294 -222 328 -53 14 -93 5 -134 -31 -34 -30 -47 -55 -65 -128 -11 -41 -13
-43 -28 -27 -16 16 -15 19 7 59 80 142 142 198 232 212 42 6 89 39 89 62 0 26
-38 70 -101 117 -95 71 -136 57 -145 -50 -3 -33 -7 -69 -10 -81 -6 -30 -73
-112 -137 -167 l-56 -47 -138 81 c-76 45 -152 92 -168 105 -63 47 -84 202 -44
331 42 137 92 198 218 267 104 56 90 104 -51 176 -73 37 -97 45 -160 48 -52 4
-77 1 -85 -8z"/>
<path d="M9655 8003 c-91 -46 -135 -102 -135 -170 0 -46 37 -106 80 -128 96
-50 264 30 301 143 17 51 3 98 -42 143 -37 37 -43 39 -96 39 -42 -1 -72 -8
-108 -27z"/>
</g>
</svg>
